<?xml version="1.0" encoding="UTF-8" standalone="no"?>
<!-- Generator: Adobe Illustrator 16.0.0, SVG Export Plug-In . SVG Version: 6.00 Build 0)  -->
<svg xmlns:rdf="http://www.w3.org/1999/02/22-rdf-syntax-ns#" xmlns="http://www.w3.org/2000/svg" enable-background="new 0 0 645.064 642.064" xml:space="preserve" height="622" viewBox="0 0 621.99998 621.99997" width="622" version="1.1" y="0px" x="0px" xmlns:cc="http://creativecommons.org/ns#" xmlns:dc="http://purl.org/dc/elements/1.1/"><metadata><rdf:RDF><cc:Work rdf:about=""><dc:format>image/svg+xml</dc:format><dc:type rdf:resource="http://purl.org/dc/dcmitype/StillImage"/><dc:title/></cc:Work></rdf:RDF></metadata><g fill="#563f79" transform="translate(-11.532,4.9999997)"><polygon points="137,245,137,458,284,344"/><polygon points="148,465,497,465,323,331"/><polygon points="508,458,508,245,361,344"/><path d="m267,198c-5.89,10.7-8.8,22.3-8.8,34.7,0,11.3,2.54,21.8,7.71,31.4,5.21,9.6,13.1,16.9,23.7,21.8,10.6,4.93,23.2,7.37,37.8,7.37,15.1,0,27.8-2.91,38.3-8.72,9.14-5.14,15.9-12.1,20.3-21.1h-14.1c-4.64,5.92-10.7,10.3-18.4,13.2-7.63,2.96-16.7,4.41-27.2,4.41-11,0-20.7-1.76-29.2-5.24-8.48-3.53-15.1-9.08-19.8-16.8-4.67-7.63-7.06-16.1-7.06-25.4,0-9.6,2.1-18.8,6.3-27.7,4.28-8.88,10.6-15.8,18.9-20.6,8.3-4.93,18.5-7.37,30.5-7.37,14.1,0,25.1,3.68,33,11,7.86,7.37,11.8,16.5,11.8,27.3,0,6.05-1.43,11.9-4.2,17.6-2.78,5.63-6.41,10.2-10.9,13.5-3.35,2.6-6.07,3.84-8.25,3.84-0.674,0-1.3-0.26-1.79-0.832-0.49-0.57-0.75-1.35-0.75-2.49,0-0.881,0.311-2.8,0.934-5.81l10-47.5h-17.5l-1.66,7.34c-3.71-6.02-9.52-9.03-17.4-9.03-11.1,0-20.1,5.24-27.2,15.7-5.82,8.56-8.72,18-8.72,28.4,0,8.36,2.41,15.1,7.27,20.2,4.83,5.03,10.9,7.58,18.2,7.58,6.8,0,12.8-2.54,18-7.63,0.623,2.49,1.89,4.36,3.74,5.66,1.87,1.3,4.62,1.92,8.28,1.92,13.6,0,24.8-5.74,33.5-17.2,6.96-9.08,10.4-19.3,10.4-30.5,0-9.42-2.33-18.1-6.85-26.1-4.62-7.99-11.2-14.1-19.9-18.5-8.67-4.31-18.6-6.49-29.7-6.49-13.2,0-24.8,2.7-35,8.1-10.2,5.34-18.3,13.4-24.1,24.1zm63.2,36.7c-1.66,5.19-3.71,9.14-6.04,11.8-1.58,1.87-3.3,3.27-4.96,4.15-2.23,1.24-4.57,1.84-7.09,1.84-3.37,0.025-6.15-1.32-8.49-3.97-2.23-2.67-3.37-6.75-3.37-12.4,0-4.2,0.805-9.06,2.44-14.5,1.66-5.45,4.08-9.6,7.3-12.6,3.24-2.93,6.75-4.41,10.5-4.41,3.55,0.026,6.49,1.38,8.77,4.07,2.34,2.65,3.53,6.49,3.53,11.5,0.001,4.46-0.882,9.29-2.6,14.4z"/><path d="m323,0c-169,0-306,137-306,306s137,306,306,306,306-137,306-306-137-306-306-306zm199,477h-399v-236l200-149,199,149v237z"/></g></svg>
