<?xml version="1.0" encoding="UTF-8" standalone="no"?>
<!-- Generator: Adobe Illustrator 16.0.0, SVG Export Plug-In . SVG Version: 6.00 Build 0)  -->
<svg xmlns:rdf="http://www.w3.org/1999/02/22-rdf-syntax-ns#" xmlns="http://www.w3.org/2000/svg" enable-background="new -57.5 0 669.5 792" xml:space="preserve" height="622" viewBox="-57.5 0 622 622" width="622" version="1.1" y="0px" x="0px" xmlns:cc="http://creativecommons.org/ns#" xmlns:dc="http://purl.org/dc/elements/1.1/"><metadata><rdf:RDF><cc:Work rdf:about=""><dc:format>image/svg+xml</dc:format><dc:type rdf:resource="http://purl.org/dc/dcmitype/StillImage"/><dc:title/></cc:Work></rdf:RDF></metadata><path fill="#563f79" d="m426,417c4.49-4.49,6.12-9.38,4.9-14.7-0.408-2.44-1.43-4.69-3.06-6.73s-3.47-3.88-5.51-5.51l-72.2-42.2-0.612-0.609c-2.45-1.23-5.71-1.84-9.79-1.84-6.53,0-11.6,2.04-15.3,6.12l-21.4,21.4c-1.23,1.22-2.86,1.84-4.9,1.84-4.9-0.816-10.8-3.06-17.7-6.73-5.71-3.26-13-7.85-21.7-13.8-8.77-5.92-18.9-14.6-30.3-26-8.16-8.56-15.7-17.1-22.6-25.7-5.71-6.94-11-14.5-15.9-22.6-4.9-8.16-7.55-15.3-7.96-21.4,0-2.04,0.612-3.67,1.84-4.9l18.4-18.4c3.26-3.26,5.3-7.24,6.12-11.9,0.816-4.69,0.204-9.08-1.84-13.2l-39.8-74.7c-3.26-6.53-8.16-9.79-14.7-9.79-4.08,0-8.16,1.63-12.2,4.9l-49,49.6c-2.45,2.04-4.59,5-6.43,8.87-1.84,3.88-2.96,7.45-3.37,10.7v15.3s2.65,12.6,7.96,37.9c5.3,25.3,14.6,44.3,27.8,56.9,13.3,12.6,32.7,36.5,58.4,71.6,22,22,42.6,39.4,61.8,52s36.4,22.1,51.7,28.5c15.3,6.32,28.3,10.3,38.9,11.9,10.6,1.63,18.2,2.45,22.6,2.45,2.04,0,3.67-0.104,4.9-0.307s2.04-0.308,2.45-0.308c3.26-0.408,6.73-1.53,10.4-3.37s6.73-3.98,9.18-6.43l49-49zm-172-412c42,0,81.7,8.06,119,24.2s69.8,37.9,97.3,65.5c27.5,27.5,49.4,60,65.5,97.3s24.2,77,24.2,119c0,28.2-3.67,55.3-11,81.4-7.35,26.1-17.6,50.5-30.9,73.1s-29.2,43.2-47.7,61.8c-18.6,18.6-39.2,34.5-61.8,47.7-22.6,13.3-47,23.6-73.1,30.9-26,7-53,11-81,11-29,0-56-4-82-11s-50-18-73-31c-22.7-13-43.3-29-61.8-48-18.6-18-34.5-39-47.8-61-13.2-23-23.5-47-30.9-74-7.3-26-11-53-11-81,0-28.2,3.67-55.3,11-81.4,7.34-26.1,17.6-50.5,30.9-73.1,13.3-23,29.2-44,47.8-62.3,18.5-18.6,39.1-34.5,61.8-47.8,23-13.2,47-23.5,73-30.9,26-7.33,53-11,82-11z"/></svg>
