<?xml version="1.0" encoding="UTF-8" standalone="no"?>
<!-- Generator: Adobe Illustrator 16.0.0, SVG Export Plug-In . SVG Version: 6.00 Build 0)  -->
<svg xmlns:rdf="http://www.w3.org/1999/02/22-rdf-syntax-ns#" xmlns="http://www.w3.org/2000/svg" enable-background="new -28.5 -30.5 578 557" xml:space="preserve" height="522" viewBox="-28.5 -30.5 522 522" width="522" version="1.1" y="0px" x="0px" xmlns:cc="http://creativecommons.org/ns#" xmlns:dc="http://purl.org/dc/elements/1.1/"><metadata><rdf:RDF><cc:Work rdf:about=""><dc:format>image/svg+xml</dc:format><dc:type rdf:resource="http://purl.org/dc/dcmitype/StillImage"/><dc:title/></cc:Work></rdf:RDF></metadata><g transform="translate(-23.5,-25.5)"><path fill="#563f79" d="m437,75c48.4,48.4,75,113,75,181,0,68.4-26.6,133-75,181-48,48-113,75-181,75s-133-27-181-75c-48.4-48-75-113-75-181s26.6-133,75-181c48-48.4,113-75,181-75s133,26.6,181,75zm-22.6,339c31.5-31.5,52.5-70.8,61.1-114-6.74,9.92-13.2,13.6-17.2-8.6-4.11-36.2-37.4-13.1-58.3-25.9-22,14.8-71.5-28.8-63,20.4,13,22.2,70-29.7,41.6,17.3-18.1,32.8-66.3,105-60.1,143,0.791,54.9-56.1,11.4-75.7-6.76-13.2-36.5-4.49-100-38.9-118-37.4-1.62-69.5-5.02-84-46.8-8.72-29.9,9.28-74.4,41.3-81.3,46.9-29.5,63.7,34.5,108,35.7,13.7-14.3,50.9-18.8,54-34.9-28.9-5.1,36.6-24.3-2.76-35.2-21.7,2.56-35.7,22.5-24.2,39.5-42.1,9.82-43.5-61-84-38.6-1.03,35.3-66.1,11.4-22.5,4.29,15-6.54-24.4-25.5-3.14-22.1,10.5-0.568,45.7-12.9,36.1-21.2,19.6-12.2,36.1,29.1,55.3-0.941,13.9-23.1-5.81-27.4-23.2-15.7-9.79-11,17.3-34.6,41.2-44.9,7.96-3.41,15.6-5.27,21.4-4.74,12,13.9,34.3,16.3,35.4-1.67-29-12.2-62-19.7-96-19.7-48.8,0-95.2,15.5-134,44.2,10.3,4.73,16.2,10.6,6.24,18.1-7.73,23-39.1,53.9-66.6,49.6-14.3,24.6-23.7,51.8-27.7,80.3,23.1,7.63,28.4,22.7,23.4,27.8-11.7,10.2-19,24.8-22.7,40.7,7.5,45.9,29.1,88.2,62.6,122,43,42,99,65,159,65,59.8,0,116-23.3,158-65.6z"/></g></svg>
