<?xml version="1.0" encoding="UTF-8" standalone="no"?>
<svg xmlns:rdf="http://www.w3.org/1999/02/22-rdf-syntax-ns#" xmlns="http://www.w3.org/2000/svg" xml:space="preserve" height="727" width="578" version="1.1" xmlns:cc="http://creativecommons.org/ns#" xmlns:dc="http://purl.org/dc/elements/1.1/"><metadata><rdf:RDF><cc:Work rdf:about=""><dc:format>image/svg+xml</dc:format><dc:type rdf:resource="http://purl.org/dc/dcmitype/StillImage"/><dc:title/></cc:Work></rdf:RDF></metadata><defs><clipPath id="clipPath16" clipPathUnits="userSpaceOnUse"><path d="m0,540,548,0v-540h-548v540z"/></clipPath></defs><g transform="matrix(1.25,0,0,-1.25,-198.98749,798.38866)" stroke-dasharray="none" stroke-miterlimit="4" stroke-width="96"><g stroke-linejoin="round" transform="translate(282.34949,540.59293)" stroke="#FFF"><path stroke-linejoin="round" d="m0,0c0.799-0.624,1.8-0.995,2.89-0.995h4.64c2.6,0,4.71,2.14,4.71,4.71v0.951l269-3.41c2.59-0.031,4.79,2.16,4.79,4.8v20.7c0,2.64-2.16,4.82-4.79,4.79l-269-3.35v0.887c0,2.57-2.14,4.71-4.71,4.71h-4.64c-1.08,0-2.09-0.373-2.89-1-2.25,9.88-11.1,17.3-21.7,17.3h-26c-12.2,0-22.2-10-22.2-22.2v-23c0-12.2,10-22.2,22.2-22.2h26c10.8,0,19.6,7.42,21.9,17.3" fill-rule="evenodd" stroke="#FFF" stroke-miterlimit="4" stroke-dasharray="none" stroke-width="96" fill="#252323"/></g><g stroke-linejoin="round" transform="translate(511.76009,234.52463)" stroke="#FFF"><path stroke-linejoin="round" d="m0,0-85.9,0,0,15,91.1,0c2.7,9.64,4.27,19.6,4.72,29.6h-96.4c-2.5-14.8-14.2-26.5-29-29v-45.1h57.2l-2.64-1.95c-7.23-5.35-15.1-9.72-23.5-13-9.94-3.87-20.4-6.14-31-6.75v-29.6c10.3,0.459,20.5,2.11,30.4,4.94,21.3,6.11,40.7,17.6,56.4,33.2,4.02,4,7.78,8.26,11.3,12.7,7.5,9.2,13.4,19.3,17.9,30" fill-rule="evenodd" stroke="#FFF" stroke-miterlimit="4" stroke-dasharray="none" stroke-width="96" fill="#252323"/></g><g stroke-linejoin="round" transform="translate(396.25089,320.55973)" stroke="#FFF"><path stroke-linejoin="round" d="m0,0,0-0.535c14.8-2.51,26.5-14.2,29-29h96.4c-0.456,10.3-2.11,20.5-4.94,30.4-1.24,4.32-2.7,8.57-4.38,12.7-4.47,11.1-10.5,21.6-17.8,31.1h-68.8v15h55.3c-15.2,14.6-33.9,25.4-54.3,31.2-9.9,2.9-20.1,4.5-30.4,5v-80.9h82.6l0.308-0.552c2.36-4.18,4.41-8.52,6.15-13l0.7-1.4h-89.7z" fill-rule="evenodd" stroke="#FFF" stroke-miterlimit="4" stroke-dasharray="none" stroke-width="96" fill="#ad1d23"/></g><g stroke-linejoin="round" transform="translate(384.36319,183.27463)" stroke="#FFF"><path stroke-linejoin="round" d="m0,0c-15.3,0.885-30.1,5.15-43.4,12.6-3.85,2.14-7.38,4.74-11.1,7.13l-3.05,1.99h57.5v29.6h-82.5l-0.319,0.496c-2.62,4.04-4.55,8.56-6.3,13l-0.572,1.48h89.7v0.535c-14.8,2.5-26.5,14.2-29,29h-96.4c0.458-10.3,2.11-20.5,4.94-30.3,16-54.2,64.7-92.6,121-95.1v29.6z" fill-rule="evenodd" stroke="#FFF" stroke-miterlimit="4" stroke-dasharray="none" stroke-width="96" fill="#252323"/></g><g stroke-linejoin="round" transform="translate(384.35829,386.82243)" stroke="#FFF"><path stroke-linejoin="round" d="m0,0,0,29.6c-56.3-2.51-105-40.9-120-95.1-2.83-9.89-4.48-20.1-4.94-30.4h96.4c2.5,14.8,14.2,26.5,29,29v0.535h-89.6l0.572,1.48c14,37.2,48.8,62.6,88.6,64.9" fill-rule="evenodd" stroke="#FFF" stroke-miterlimit="4" stroke-dasharray="none" stroke-width="96" fill="#ad1d23"/></g><g stroke-linejoin="round" transform="translate(390.30309,312.03633)" stroke="#FFF"><path stroke-linejoin="round" d="m0,0c14.9,0,27-12.1,27-27s-12.1-27-27-27-27,12.1-27,27,12.1,27,27,27" fill-rule="evenodd" stroke="#FFF" stroke-miterlimit="4" stroke-dasharray="none" stroke-width="96" fill="#3b1f42"/></g><g stroke-linejoin="round" transform="translate(493.44469,439.36343)" stroke="#FFF"><path stroke-linejoin="round" d="m0,0-21.3-30.9c38.5-26.2,63.8-70.4,63.8-120,0-56.7-32.4-106-79.7-130l16-34c60,30.1,101,92.1,101,164,0.2,62.6-31.5,118-79.8,151" fill-rule="evenodd" stroke="#FFF" stroke-miterlimit="4" stroke-dasharray="none" stroke-width="96" fill="#3b1f42"/></g><g stroke-linejoin="round" transform="translate(390.30699,471.16083)" stroke="#FFF"><path stroke-linejoin="round" d="m0,0c-96,0-175-73.9-182-168l37.6-0.938c7.16,73.7,69.3,131,145,131,28.8,0,55.6-8.35,78.2-22.8l21.3,30.9c-29.1,19.1-63.3,29.9-100,29.9" fill-rule="evenodd" stroke="#FFF" stroke-miterlimit="4" stroke-dasharray="none" stroke-width="96" fill="#252323"/></g><g stroke-linejoin="round" transform="translate(390.30699,142.47183)" stroke="#FFF"><path stroke-linejoin="round" d="m0,0c-80.4,0-146,65.2-146,146,0,3.33,0.122,6.63,0.342,9.9l-37.6,0.938c-0.21-3.59-0.328-7.2-0.328-10.8,0-101,82-183,183-183,27.9,0,54.3,6.24,78,17.4l-15,33.4c-18.8-8.84-39.8-13.8-62-13.8" fill-rule="evenodd" stroke="#FFF" stroke-miterlimit="4" stroke-dasharray="none" stroke-width="96" fill="#ad1d23"/></g><g stroke-linejoin="round" transform="translate(493.07749,449.86103)" stroke="#FFF"><path stroke-linejoin="round" d="M0,0,12.3,86.1,0.261,86.2-11.2,6.21c3.8-1.94,7.54-4.01,11.2-6.21" fill-rule="evenodd" stroke="#FFF" stroke-miterlimit="4" stroke-dasharray="none" stroke-width="96" fill="#3b1f42"/></g><g stroke-linejoin="round" transform="translate(270.82259,518.43373)" stroke="#FFF"><path stroke-linejoin="round" d="m0,0,11.1-73.9c3.61,2.37,7.31,4.62,11.1,6.74l-11.1,73.8c-2.92-3.2-6.76-5.55-11.1-6.61" fill-rule="evenodd" stroke="#FFF" stroke-miterlimit="4" stroke-dasharray="none" stroke-width="96" fill="#3b1f42"/></g><g clip-path="url(#clipPath16)" transform="translate(113.13709,80.32733)"><g transform="translate(169.2124,460.2656)"><path d="m0,0c0.799-0.624,1.8-0.995,2.89-0.995h4.64c2.6,0,4.71,2.14,4.71,4.71v0.951l269-3.41c2.59-0.031,4.79,2.16,4.79,4.8v20.7c0,2.64-2.16,4.82-4.79,4.79l-269-3.35v0.887c0,2.57-2.14,4.71-4.71,4.71h-4.64c-1.08,0-2.09-0.373-2.89-1-2.25,9.88-11.1,17.3-21.7,17.3h-26c-12.2,0-22.2-10-22.2-22.2v-23c0-12.2,10-22.2,22.2-22.2h26c10.8,0,19.6,7.42,21.9,17.3" fill-rule="evenodd" fill="#252323"/></g><g transform="translate(398.623,154.1973)"><path d="m0,0-85.9,0,0,15,91.1,0c2.7,9.64,4.27,19.6,4.72,29.6h-96.4c-2.5-14.8-14.2-26.5-29-29v-45.1h57.2l-2.64-1.95c-7.23-5.35-15.1-9.72-23.5-13-9.94-3.87-20.4-6.14-31-6.75v-29.6c10.3,0.459,20.5,2.11,30.4,4.94,21.3,6.11,40.7,17.6,56.4,33.2,4.02,4,7.78,8.26,11.3,12.7,7.5,9.2,13.4,19.3,17.9,30" fill-rule="evenodd" fill="#252323"/></g><g transform="translate(283.1138,240.2324)"><path d="m0,0,0-0.535c14.8-2.51,26.5-14.2,29-29h96.4c-0.456,10.3-2.11,20.5-4.94,30.4-1.24,4.32-2.7,8.57-4.38,12.7-4.47,11.1-10.5,21.6-17.8,31.1h-68.8v15h55.3c-15.2,14.6-33.9,25.4-54.3,31.2-9.9,2.9-20.1,4.5-30.4,5v-80.9h82.6l0.308-0.552c2.36-4.18,4.41-8.52,6.15-13l0.7-1.4h-89.7z" fill-rule="evenodd" fill="#ad1d23"/></g><g transform="translate(271.2261,102.9473)"><path d="m0,0c-15.3,0.885-30.1,5.15-43.4,12.6-3.85,2.14-7.38,4.74-11.1,7.13l-3.05,1.99h57.5v29.6h-82.5l-0.319,0.496c-2.62,4.04-4.55,8.56-6.3,13l-0.572,1.48h89.7v0.535c-14.8,2.5-26.5,14.2-29,29h-96.4c0.458-10.3,2.11-20.5,4.94-30.3,16-54.2,64.7-92.6,121-95.1v29.6z" fill-rule="evenodd" fill="#252323"/></g><g transform="translate(271.2212,306.4951)"><path d="m0,0,0,29.6c-56.3-2.51-105-40.9-120-95.1-2.83-9.89-4.48-20.1-4.94-30.4h96.4c2.5,14.8,14.2,26.5,29,29v0.535h-89.6l0.572,1.48c14,37.2,48.8,62.6,88.6,64.9" fill-rule="evenodd" fill="#ad1d23"/></g><g transform="translate(277.166,231.709)"><path d="m0,0c14.9,0,27-12.1,27-27s-12.1-27-27-27-27,12.1-27,27,12.1,27,27,27" fill-rule="evenodd" fill="#3b1f42"/></g><g transform="translate(380.3076,359.0361)"><path d="m0,0-21.3-30.9c38.5-26.2,63.8-70.4,63.8-120,0-56.7-32.4-106-79.7-130l16-34c60,30.1,101,92.1,101,164,0.2,62.6-31.5,118-79.8,151" fill-rule="evenodd" fill="#3b1f42"/></g><g transform="translate(277.1699,390.8335)"><path d="m0,0c-96,0-175-73.9-182-168l37.6-0.938c7.16,73.7,69.3,131,145,131,28.8,0,55.6-8.35,78.2-22.8l21.3,30.9c-29.1,19.1-63.3,29.9-100,29.9" fill-rule="evenodd" fill="#252323"/></g><g transform="translate(277.1699,62.1445)"><path d="m0,0c-80.4,0-146,65.2-146,146,0,3.33,0.122,6.63,0.342,9.9l-37.6,0.938c-0.21-3.59-0.328-7.2-0.328-10.8,0-101,82-183,183-183,27.9,0,54.3,6.24,78,17.4l-15,33.4c-18.8-8.84-39.8-13.8-62-13.8" fill-rule="evenodd" fill="#ad1d23"/></g><g transform="translate(379.9404,369.5337)"><path d="M0,0,12.3,86.1,0.261,86.2-11.2,6.21c3.8-1.94,7.54-4.01,11.2-6.21" fill-rule="evenodd" fill="#3b1f42"/></g><g transform="translate(157.6855,438.1064)"><path d="m0,0,11.1-73.9c3.61,2.37,7.31,4.62,11.1,6.74l-11.1,73.8c-2.92-3.2-6.76-5.55-11.1-6.61" fill-rule="evenodd" fill="#3b1f42"/></g></g></g></svg>
