<?xml version="1.0" encoding="UTF-8" standalone="no"?>
<svg
   xmlns:dc="http://purl.org/dc/elements/1.1/"
   xmlns:cc="http://creativecommons.org/ns#"
   xmlns:rdf="http://www.w3.org/1999/02/22-rdf-syntax-ns#"
   xmlns:svg="http://www.w3.org/2000/svg"
   xmlns="http://www.w3.org/2000/svg"
   xmlns:sodipodi="http://sodipodi.sourceforge.net/DTD/sodipodi-0.dtd"
   xmlns:inkscape="http://www.inkscape.org/namespaces/inkscape"
   xml:space="preserve"
   height="1353.7202"
   width="1020"
   version="1.1"
   id="svg2"
   inkscape:version="0.48.5 r10040"
   sodipodi:docname="CSESLogoPadded.svg"><sodipodi:namedview
     pagecolor="#ffffff"
     bordercolor="#666666"
     borderopacity="1"
     objecttolerance="10"
     gridtolerance="10"
     guidetolerance="10"
     inkscape:pageopacity="0"
     inkscape:pageshadow="2"
     inkscape:window-width="640"
     inkscape:window-height="480"
     id="namedview59"
     showgrid="false"
     fit-margin-top="10"
     fit-margin-left="10"
     fit-margin-right="10"
     fit-margin-bottom="20"
     inkscape:zoom="0.25284424"
     inkscape:cx="101.64824"
     inkscape:cy="501.81006"
     inkscape:window-x="0"
     inkscape:window-y="21"
     inkscape:window-maximized="0"
     inkscape:current-layer="svg2" /><metadata
     id="metadata4"><rdf:RDF><cc:Work
         rdf:about=""><dc:format>image/svg+xml</dc:format><dc:type
           rdf:resource="http://purl.org/dc/dcmitype/StillImage" /><dc:title></dc:title></cc:Work></rdf:RDF></metadata><defs
     id="defs6"><clipPath
       id="clipPath16"
       clipPathUnits="userSpaceOnUse"><path
         d="m 0,540 548,0 V 0 H 0 v 540 z"
         id="path9"
         inkscape:connector-curvature="0" /></clipPath></defs><g
     transform="matrix(2.7283295,0,0,-2.7283295,-245.32772,1402.4264)"
     id="g11"><g
       clip-path="url(#clipPath16)"
       id="g13"><g
         transform="translate(169.2124,460.2656)"
         id="g15"><path
           d="m 0,0 c 0.799,-0.624 1.8,-0.995 2.89,-0.995 h 4.64 c 2.6,0 4.71,2.14 4.71,4.71 v 0.951 l 269,-3.41 c 2.59,-0.031 4.79,2.16 4.79,4.8 v 20.7 c 0,2.64 -2.16,4.82 -4.79,4.79 l -269,-3.35 v 0.887 c 0,2.57 -2.14,4.71 -4.71,4.71 h -4.4 c -1.08,0 -2.09,-0.373 -2.89,-1 -2.25,9.88 -11.1,17.3 -21.7,17.3 h -26 c -12.2,0 -22.2,-10 -22.2,-22.2 v -23 c 0,-12.2 10,-22.2 22.2,-22.2 h 26 c 10.8,0 19.6,7.42 21.9,17.3"
           id="path17"
           inkscape:connector-curvature="0"
           style="fill:#252323;fill-rule:evenodd" /></g><g
         transform="translate(398.623,154.1973)"
         id="g19"><path
           d="m 0,0 -85.9,0 0,15 91.1,0 c 2.7,9.64 4.27,19.6 4.72,29.6 h -96.4 c -2.5,-14.8 -14.2,-26.5 -29,-29 v -45.1 h 57.2 l -2.64,-1.95 c -7.23,-5.35 -15.1,-9.72 -23.5,-13 -9.94,-3.87 -20.4,-6.14 -31,-6.75 v -29.6 c 10.3,0.459 20.5,2.11 30.4,4.94 21.3,6.11 40.7,17.6 56.4,33.2 4.02,4 7.78,8.26 11.3,12.7 7.5,9.2 13.4,19.3 17.9,30"
           id="path21"
           inkscape:connector-curvature="0"
           style="fill:#252323;fill-rule:evenodd" /></g><g
         transform="translate(283.1138,240.2324)"
         id="g23"><path
           d="m 0,0 0,-0.535 c 14.8,-2.51 26.5,-14.2 29,-29 h 96.4 c -0.456,10.3 -2.11,20.5 -4.94,30.4 -1.24,4.32 -2.7,8.57 -4.38,12.7 -4.47,11.1 -10.5,21.6 -17.8,31.1 h -68.8 v 15 h 55.3 c -15.2,14.6 -33.9,25.4 -54.3,31.2 -9.9,2.9 -20.1,4.5 -30.4,5 v -80.9 h 82.6 l 0.308,-0.552 c 2.36,-4.18 4.41,-8.52 6.15,-13 l 0.7,-1.4 h -89.7 z"
           id="path25"
           inkscape:connector-curvature="0"
           style="fill:#ad1d23;fill-rule:evenodd" /></g><g
         transform="translate(271.2261,102.9473)"
         id="g27"><path
           d="m 0,0 c -15.3,0.885 -30.1,5.15 -43.4,12.6 -3.85,2.14 -7.38,4.74 -11.1,7.13 l -3.05,1.99 h 57.5 v 29.6 h -82.5 l -0.319,0.496 c -2.62,4.04 -4.55,8.56 -6.3,13 l -0.572,1.48 h 89.7 v 0.535 c -14.8,2.5 -26.5,14.2 -29,29 h -96.4 c 0.458,-10.3 2.11,-20.5 4.94,-30.3 16,-54.2 64.7,-92.6 121,-95.1 v 29.6 z"
           id="path29"
           inkscape:connector-curvature="0"
           style="fill:#252323;fill-rule:evenodd" /></g><g
         transform="translate(271.2212,306.4951)"
         id="g31"><path
           d="m 0,0 0,29.6 c -56.3,-2.51 -105,-40.9 -120,-95.1 -2.83,-9.89 -4.48,-20.1 -4.94,-30.4 h 96.4 c 2.5,14.8 14.2,26.5 29,29 v 0.535 h -89.6 l 0.572,1.48 c 14,37.2 48.8,62.6 88.6,64.9"
           id="path33"
           inkscape:connector-curvature="0"
           style="fill:#ad1d23;fill-rule:evenodd" /></g><g
         transform="translate(277.166,231.709)"
         id="g35"><path
           d="m 0,0 c 14.9,0 27,-12.1 27,-27 0,-14.9 -12.1,-27 -27,-27 -14.9,0 -27,12.1 -27,27 0,14.9 12.1,27 27,27"
           id="path37"
           inkscape:connector-curvature="0"
           style="fill:#3b1f42;fill-rule:evenodd" /></g><g
         transform="translate(380.3076,359.0361)"
         id="g39"><path
           d="m 0,0 -21.3,-30.9 c 38.5,-26.2 63.8,-70.4 63.8,-120 0,-56.7 -32.4,-106 -79.7,-130 l 16,-34 c 60,30.1 101,92.1 101,164 C 80,-88.2 48.3,-32.9 0,0.1"
           id="path41"
           inkscape:connector-curvature="0"
           style="fill:#3b1f42;fill-rule:evenodd" /></g><g
         transform="translate(277.1699,390.8335)"
         id="g43"><path
           d="m 0,0 c -96,0 -175,-73.9 -182,-168 l 37.6,-0.938 c 7.16,73.7 69.3,131 145,131 28.8,0 55.6,-8.35 78.2,-22.8 l 21.3,30.9 c -29.1,19.1 -63.3,29.9 -100,29.9"
           id="path45"
           inkscape:connector-curvature="0"
           style="fill:#252323;fill-rule:evenodd" /></g><g
         transform="translate(277.1699,62.1445)"
         id="g47"><path
           d="m 0,0 c -80.4,0 -146,65.2 -146,146 0,3.33 0.122,6.63 0.342,9.9 l -37.6,0.938 c -0.21,-3.59 -0.328,-7.2 -0.328,-10.8 0,-101 82,-183 183,-183 27.9,0 54.3,6.24 78,17.4 l -15,33.4 c -18.8,-8.84 -39.8,-13.8 -62,-13.8"
           id="path49"
           inkscape:connector-curvature="0"
           style="fill:#ad1d23;fill-rule:evenodd" /></g><g
         transform="translate(379.9404,369.5337)"
         id="g51"><path
           d="M 0,0 12.3,86.1 0.261,86.2 -11.2,6.21 C -7.4,4.27 -3.66,2.2 0,0"
           id="path53"
           inkscape:connector-curvature="0"
           style="fill:#3b1f42;fill-rule:evenodd" /></g><g
         transform="translate(157.6855,438.1064)"
         id="g55"><path
           d="m 0,0 11.1,-73.9 c 3.61,2.37 7.31,4.62 11.1,6.74 L 11.1,6.64 C 8.18,3.44 4.34,1.09 0,0.03"
           id="path57"
           inkscape:connector-curvature="0"
           style="fill:#3b1f42;fill-rule:evenodd" /></g></g></g></svg>