<?xml version="1.0" encoding="UTF-8" standalone="no"?>
<svg xmlns:rdf="http://www.w3.org/1999/02/22-rdf-syntax-ns#" xmlns="http://www.w3.org/2000/svg" xml:space="preserve" height="520" width="1800" version="1.1" xmlns:cc="http://creativecommons.org/ns#" xmlns:dc="http://purl.org/dc/elements/1.1/"><metadata><rdf:RDF><cc:Work rdf:about=""><dc:format>image/svg+xml</dc:format><dc:type rdf:resource="http://purl.org/dc/dcmitype/StillImage"/><dc:title/></cc:Work></rdf:RDF></metadata><defs/><path style="enable-background:accumulate;color:#000000;" d="m900,520c-188,0-361-100-455-262,0,0-145-247-445-248v-10c220,1.32,900,0,900,0z" fill-rule="nonzero" fill="#cdcccc"/><path style="enable-background:accumulate;color:#000000;" d="m900,510c-188,0-361-100-455-262,0,0-145-247-445-248,100,1.32,900,0,900,0z" fill-rule="nonzero" fill="#cdcccc"/><path style="enable-background:accumulate;color:#000000;" d="m900,520c188,0,361-100,455-262,0,0,145-247,445-248v-10c-220,1.32-900,0-900,0z" fill-rule="nonzero" fill="#cdcccc"/><path style="enable-background:accumulate;color:#000000;" d="m900,510c-188,0-361-100-455-262,0,0-145-247-445-248,100,1.32,900,0,900,0z" fill-rule="nonzero" fill="#f8f7f7"/><path style="enable-background:accumulate;color:#000000;" d="m900,510c188,0,361-100,455-262,0,0,145-247,445-248-100,1.32-900,0-900,0z" fill-rule="nonzero" fill="#cdcccc"/><path style="enable-background:accumulate;color:#000000;" d="m900,510c188,0,361-100,455-262,0,0,145-247,445-248-100,1.32-900,0-900,0z" fill-rule="nonzero" fill="#f8f7f7"/></svg>
