<?xml version="1.0" encoding="UTF-8" standalone="no"?>
<svg xmlns:rdf="http://www.w3.org/1999/02/22-rdf-syntax-ns#" xmlns="http://www.w3.org/2000/svg" xml:space="preserve" height="65.7" width="65.7" version="1.1" xmlns:cc="http://creativecommons.org/ns#" xmlns:dc="http://purl.org/dc/elements/1.1/"><metadata><rdf:RDF><cc:Work rdf:about=""><dc:format>image/svg+xml</dc:format><dc:type rdf:resource="http://purl.org/dc/dcmitype/StillImage"/><dc:title/></cc:Work></rdf:RDF></metadata><defs><clipPath id="clipPath16" clipPathUnits="userSpaceOnUse"><path d="m0,46.2,46.2,0v-46.2h-46.2v46.2z"/></clipPath></defs><g transform="matrix(1.25,0,0,-1.25,3.999375,61.70875)"><g clip-path="url(#clipPath16)"><g transform="translate(46.1675,23.084)"><path fill-rule="nonzero" fill="#553e78" d="m0,0c0-12.7-10.3-23.1-23.1-23.1-12.7,0-23.1,10.3-23.1,23.1,0,12.7,10.3,23.1,23.1,23.1s23.1-10.4,23.1-23.1"/></g><g transform="translate(30.5444,32.2026)"><path fill-rule="nonzero" fill="#FFF" d="m0,0c0.914,0,1.66,0.743,1.66,1.66v3.32c0,0.91-0.746,1.65-1.66,1.65-0.916,0-1.66-0.74-1.66-1.66v-3.32c0-0.907,0.745-1.65,1.66-1.65m-14.9,0c0.915,0,1.66,0.743,1.66,1.66v3.32c0,0.916-0.743,1.66-1.66,1.66-0.916,0-1.66-0.742-1.66-1.66v-3.32c0-0.917,0.8-1.66,1.7-1.66m4.97-18.2c0.915,0,1.66,0.742,1.66,1.66,0,0.916-0.744,1.66-1.66,1.66-0.915,0-1.66-0.743-1.66-1.66,0-0.914,0.742-1.66,1.66-1.66m-4.97,9.95c0.915,0,1.66,0.743,1.66,1.66,0,0.916-0.743,1.66-1.66,1.66-0.916,0-1.66-0.742-1.66-1.66,0-0.915,0.742-1.66,1.66-1.66m0-4.97c0.915,0,1.66,0.744,1.66,1.66s-0.743,1.66-1.66,1.66c-0.916,0-1.66-0.742-1.66-1.66,0-0.914,0.742-1.66,1.66-1.66m19.9,16.6-1.66,0,0-3.32,1.66,0,0-21.6-24.9,0,0,21.6,1.66,0,0,3.32-1.66,0c-1.83,0-3.32-1.48-3.32-3.32v-21.6c0-1.83,1.48-3.32,3.32-3.32h24.9c1.83,0,3.32,1.48,3.32,3.32l-0.03,21.5c0,1.83-1.48,3.32-3.32,3.32m-19.9-21.6c0.915,0,1.66,0.742,1.66,1.66,0,0.916-0.743,1.66-1.66,1.66-0.916,0-1.66-0.743-1.66-1.66,0-0.914,0.742-1.66,1.66-1.66m4.97,4.97c0.915,0,1.66,0.744,1.66,1.66s-0.743,1.66-1.66,1.66c-0.916,0-1.66-0.742-1.66-1.66,0-0.914,0.742-1.66,1.66-1.66m9.95,0c0.914,0,1.66,0.744,1.66,1.66s-0.741,1.66-1.66,1.66c-0.916,0-1.66-0.742-1.66-1.66,0-0.914,0.743-1.66,1.66-1.66m0,4.97c0.914,0,1.66,0.743,1.66,1.66,0,0.916-0.741,1.66-1.66,1.66-0.916,0-1.66-0.742-1.66-1.66,0-0.915,0.743-1.66,1.66-1.66m-3.32,11.6-8.29,0,0-3.32,8.29,0,0,3.32zm-1.66-8.29c-0.916,0-1.66-0.742-1.66-1.66,0-0.915,0.743-1.66,1.66-1.66,0.914,0,1.66,0.743,1.66,1.66,0,0.916-0.742,1.66-1.66,1.66m-4.97-3.32c0.915,0,1.66,0.743,1.66,1.66,0,0.916-0.744,1.66-1.66,1.66-0.915,0-1.66-0.742-1.66-1.66,0-0.915,0.742-1.66,1.66-1.66m4.97-1.66c-0.916,0-1.66-0.742-1.66-1.66,0-0.914,0.744-1.66,1.66-1.66,0.914,0,1.66,0.744,1.66,1.66s-0.742,1.66-1.66,1.66"/></g></g></g></svg>
