<?xml version="1.0" encoding="UTF-8" standalone="no"?>
<!-- Created with Inkscape (http://www.inkscape.org/) -->

<svg
   xmlns:dc="http://purl.org/dc/elements/1.1/"
   xmlns:cc="http://creativecommons.org/ns#"
   xmlns:rdf="http://www.w3.org/1999/02/22-rdf-syntax-ns#"
   xmlns:svg="http://www.w3.org/2000/svg"
   xmlns="http://www.w3.org/2000/svg"
   xmlns:sodipodi="http://sodipodi.sourceforge.net/DTD/sodipodi-0.dtd"
   xmlns:inkscape="http://www.inkscape.org/namespaces/inkscape"
   id="svg2"
   version="1.1"
   inkscape:version="0.48.5 r10040"
   width="57.709375"
   height="57.709375"
   xml:space="preserve"
   sodipodi:docname="Calendar Icon.ai"><metadata
     id="metadata8"><rdf:RDF><cc:Work
         rdf:about=""><dc:format>image/svg+xml</dc:format><dc:type
           rdf:resource="http://purl.org/dc/dcmitype/StillImage" /><dc:title></dc:title></cc:Work></rdf:RDF></metadata><defs
     id="defs6"><clipPath
       clipPathUnits="userSpaceOnUse"
       id="clipPath16"><path
         d="m 0,46.167 46.167,0 L 46.167,0 0,0 0,46.167 z"
         id="path18" /></clipPath></defs><sodipodi:namedview
     pagecolor="#ffffff"
     bordercolor="#666666"
     borderopacity="1"
     objecttolerance="10"
     gridtolerance="10"
     guidetolerance="10"
     inkscape:pageopacity="0"
     inkscape:pageshadow="2"
     inkscape:window-width="640"
     inkscape:window-height="480"
     id="namedview4"
     showgrid="false"
     inkscape:zoom="4.089457"
     inkscape:cx="28.854687"
     inkscape:cy="28.854687"
     inkscape:window-x="224"
     inkscape:window-y="414"
     inkscape:window-maximized="0"
     inkscape:current-layer="g10" /><g
     id="g10"
     inkscape:groupmode="layer"
     inkscape:label="Calendar Icon"
     transform="matrix(1.25,0,0,-1.25,0,57.709375)"><g
       id="g12"><g
         id="g14"
         clip-path="url(#clipPath16)"><g
           id="g20"
           transform="translate(46.1675,23.084)"><path
             d="m 0,0 c 0,-12.748 -10.335,-23.084 -23.084,-23.084 -12.749,0 -23.083,10.336 -23.083,23.084 0,12.749 10.334,23.084 23.083,23.084 C -10.335,23.084 0,12.749 0,0"
             style="fill:#553e78;fill-opacity:1;fill-rule:nonzero;stroke:none"
             id="path22" /></g><g
           id="g24"
           transform="translate(30.5444,32.2026)"><path
             d="m 0,0 c 0.914,0 1.657,0.743 1.657,1.658 l 0,3.316 C 1.657,5.89 0.914,6.632 0,6.632 -0.916,6.632 -1.658,5.89 -1.658,4.974 l 0,-3.316 C -1.658,0.743 -0.915,0 0,0 m -14.921,0 c 0.915,0 1.658,0.743 1.658,1.658 l 0,3.316 c 0,0.916 -0.743,1.658 -1.658,1.658 -0.916,0 -1.658,-0.742 -1.658,-1.658 l 0,-3.316 C -16.579,0.743 -15.837,0 -14.921,0 m 4.973,-18.236 c 0.915,0 1.659,0.742 1.659,1.656 0,0.916 -0.744,1.659 -1.659,1.659 -0.915,0 -1.657,-0.743 -1.657,-1.659 0,-0.914 0.742,-1.656 1.657,-1.656 m -4.973,9.947 c 0.915,0 1.658,0.743 1.658,1.658 0,0.916 -0.743,1.658 -1.658,1.658 -0.916,0 -1.658,-0.742 -1.658,-1.658 0,-0.915 0.742,-1.658 1.658,-1.658 m 0,-4.974 c 0.915,0 1.658,0.744 1.658,1.658 0,0.916 -0.743,1.658 -1.658,1.658 -0.916,0 -1.658,-0.742 -1.658,-1.658 0,-0.914 0.742,-1.658 1.658,-1.658 m 19.895,16.579 -1.66,0 0,-3.316 1.66,0 0,-21.552 -24.869,0 0,21.552 1.658,0 0,3.316 -1.658,0 c -1.831,0 -3.316,-1.483 -3.316,-3.316 l 0,-21.552 c 0,-1.832 1.485,-3.317 3.316,-3.317 l 24.869,0 c 1.831,0 3.315,1.485 3.315,3.317 L 8.289,0 c 0,1.833 -1.484,3.316 -3.315,3.316 m -19.895,-21.552 c 0.915,0 1.658,0.742 1.658,1.656 0,0.916 -0.743,1.659 -1.658,1.659 -0.916,0 -1.658,-0.743 -1.658,-1.659 0,-0.914 0.742,-1.656 1.658,-1.656 m 4.973,4.973 c 0.915,0 1.659,0.744 1.659,1.658 0,0.916 -0.743,1.658 -1.659,1.658 -0.916,0 -1.657,-0.742 -1.657,-1.658 0,-0.914 0.742,-1.658 1.657,-1.658 m 9.948,0 c 0.914,0 1.657,0.744 1.657,1.658 0,0.916 -0.741,1.658 -1.657,1.658 -0.916,0 -1.658,-0.742 -1.658,-1.658 0,-0.914 0.743,-1.658 1.658,-1.658 m 0,4.974 c 0.914,0 1.657,0.743 1.657,1.658 0,0.916 -0.741,1.658 -1.657,1.658 -0.916,0 -1.658,-0.742 -1.658,-1.658 0,-0.915 0.743,-1.658 1.658,-1.658 m -3.316,11.605 -8.289,0 0,-3.316 8.289,0 0,3.316 z m -1.658,-8.289 0,0 c -0.916,0 -1.659,-0.742 -1.659,-1.658 0,-0.915 0.743,-1.658 1.659,-1.658 0.914,0 1.658,0.743 1.658,1.658 0,0.916 -0.742,1.658 -1.658,1.658 m -4.974,-3.316 c 0.915,0 1.659,0.743 1.659,1.658 0,0.916 -0.744,1.658 -1.659,1.658 -0.915,0 -1.657,-0.742 -1.657,-1.658 0,-0.915 0.742,-1.658 1.657,-1.658 m 4.974,-1.658 0,0 c -0.916,0 -1.659,-0.742 -1.659,-1.658 0,-0.914 0.744,-1.658 1.659,-1.658 0.914,0 1.658,0.744 1.658,1.658 0,0.916 -0.742,1.658 -1.658,1.658"
             style="fill:#ffffff;fill-opacity:1;fill-rule:nonzero;stroke:none"
             id="path26" /></g></g></g></g></svg>