<?xml version="1.0" encoding="UTF-8" standalone="no"?>
<!-- Generator: Adobe Illustrator 16.0.0, SVG Export Plug-In . SVG Version: 6.00 Build 0)  -->
<svg xmlns:rdf="http://www.w3.org/1999/02/22-rdf-syntax-ns#" xmlns="http://www.w3.org/2000/svg" enable-background="new -28.5 -30.5 578 557" xml:space="preserve" height="521" viewBox="-28.5 -30.5 521.26801 521.24799" width="521" version="1.1" y="0px" x="0px" xmlns:cc="http://creativecommons.org/ns#" xmlns:dc="http://purl.org/dc/elements/1.1/"><metadata><rdf:RDF><cc:Work rdf:about=""><dc:format>image/svg+xml</dc:format><dc:type rdf:resource="http://purl.org/dc/dcmitype/StillImage"/><dc:title/></cc:Work></rdf:RDF></metadata><path fill="#563f79" d="M232-25.5c-141,0-256,114-256,256,0,141,114,256,256,256,141,0,256-114,256-256,0-141-115-256-256-256zm67.7,255h-44.3v158h-65.6v-158h-31.2v-55.7h31.2v-36.1c0-25.9,12.3-66.2,66.2-66.2l48.6,0.184v54.1h-35.3c-5.75,0-13.9,2.88-13.9,15.2v32.8h50l-5.75,55.7z"/></svg>
