<?xml version="1.0" encoding="UTF-8" standalone="no"?>
<!-- Generator: Adobe Illustrator 16.0.0, SVG Export Plug-In . SVG Version: 6.00 Build 0)  -->
<svg xmlns:rdf="http://www.w3.org/1999/02/22-rdf-syntax-ns#" xmlns="http://www.w3.org/2000/svg" enable-background="new 0 0 708 682" xml:space="preserve" height="622" viewBox="0 0 622 622" width="622" version="1.1" y="0px" x="0px" xmlns:cc="http://creativecommons.org/ns#" xmlns:dc="http://purl.org/dc/elements/1.1/"><metadata><rdf:RDF><cc:Work rdf:about=""><dc:format>image/svg+xml</dc:format><dc:type rdf:resource="http://purl.org/dc/dcmitype/StillImage"/><dc:title/></cc:Work></rdf:RDF></metadata><g fill="#563f79" transform="translate(-58.633,28.718)"><path d="m370,170c-22.2,0-47.7,13.7-47.7,43.7v10.6c0,0.688-0.11,8.2,1.26,12,9.22,23.6,27.9,32.1,44.9,32.1,27.3,0,49.9-21.8,49.9-49.1,0.001-27.3-21.1-49.2-48.4-49.2z"/><path d="m370-23.7c-169,0-306,137-306,306s137,306,306,306,306-137,306-306-137-306-306-306zm132,250c0,44-39,88.7-63.2,133-2.38,4.44-7.6,9.22-10.3,14-4.1,7.17-8.85,14.7-12.9,22.2-15,25.6-30.3,52.2-45.7,78.5-24.9-40.3-50.1-80.6-74.3-122-22.5-38.2-52.7-78.9-57.5-117-0.336-3.07-0.571-9.22-0.571-9.9v-16.4c8.53-80.2,72.4-119,130-119,43.4,0,97,21.2,122,80.2,2.05,4.78,4.83,10.2,6.2,15.4,0.334,1.03,6.25,17.8,6.25,22.5v18.1z"/></g></svg>
