<?xml version="1.0" encoding="UTF-8" standalone="no"?>
<svg xmlns:rdf="http://www.w3.org/1999/02/22-rdf-syntax-ns#" xmlns="http://www.w3.org/2000/svg" xml:space="preserve" height="57.709" width="57.709" version="1.1" xmlns:cc="http://creativecommons.org/ns#" xmlns:dc="http://purl.org/dc/elements/1.1/"><metadata><rdf:RDF><cc:Work rdf:about=""><dc:format>image/svg+xml</dc:format><dc:type rdf:resource="http://purl.org/dc/dcmitype/StillImage"/><dc:title/></cc:Work></rdf:RDF></metadata><defs><clipPath id="clipPath16" clipPathUnits="userSpaceOnUse"><path d="m0,46.167,46.167,0v-46.167h-46.167v46.167z"/></clipPath></defs><g transform="matrix(1.25,0,0,-1.25,0,57.709375)"><g clip-path="url(#clipPath16)"><g transform="translate(46.1675,23.084)"><path fill-rule="nonzero" fill="#553e78" d="m0,0c0-12.749-10.335-23.084-23.084-23.084s-23.083,10.335-23.083,23.084,10.334,23.083,23.083,23.083,23.084-10.334,23.084-23.083"/></g><path fill-rule="nonzero" fill="#FFF" d="m9.733,22.584,10.417,0,0-8.75-10.417,0,0,8.75zm20.835-8.75-8.102,0,0,1.75,8.102,0,0-1.75zm-8.102,8.75,10.417,0,0-1.751-10.417,0,0,1.751zm10.416-5.25-10.417,0,0,1.751,10.417,0,0-1.751zm-23.149,8.75,23.149,0,0-1.75-23.149,0,0,1.75zm2.368,1.841,0.551,0,0,4.104-0.551,0,0,0.084,1.416,0,1.998-2.856,0.011,0,0,2.772-0.551,0,0,0.084,1.199,0,0-0.084-0.551,0,0-4.188-0.163,0-2.7,3.846-0.011,0,0-3.762,0.551,0,0-0.084-1.199,0,0,0.084zm4.463,0,0.552,0,0,4.104-0.552,0,0,0.084,3.588,0,0-1.026-0.078,0c-0.02,0.068-0.053,0.155-0.102,0.261-0.048,0.106-0.115,0.209-0.201,0.309s-0.197,0.187-0.333,0.261-0.302,0.111-0.498,0.111h-0.954v-1.854h0.336c0.148,0,0.273,0.021,0.375,0.063s0.187,0.102,0.255,0.18,0.124,0.172,0.168,0.282,0.08,0.233,0.109,0.369h0.077v-1.866h-0.077c-0.029,0.116-0.062,0.228-0.1,0.336s-0.089,0.203-0.153,0.285-0.143,0.147-0.237,0.195-0.211,0.072-0.351,0.072h-0.402v-2.166h0.984c0.184,0,0.35,0.031,0.498,0.093s0.279,0.149,0.393,0.261,0.209,0.243,0.285,0.393,0.134,0.311,0.174,0.483h0.078v-1.314h-3.834v0.084zm4.044,4.188,1.836,0,0-0.084-0.438,0,1.079-3.162,0.012,0,0.631,1.788-0.469,1.374-0.323,0,0,0.084,1.794,0,0-0.084-0.559,0,1.086-3.168,0.012,0,1.111,3.168-0.515,0,0,0.084,1.103,0,0-0.084-0.486,0-1.543-4.35-0.174,0-0.983,2.838-0.012,0-1.009-2.838-0.174,0-1.487,4.35-0.492,0,0,0.084zm6.666-2.94,0.09,0c0.008-0.048,0.022-0.111,0.042-0.189s0.049-0.162,0.087-0.252,0.086-0.182,0.144-0.276,0.129-0.181,0.213-0.261c0.092-0.092,0.181-0.162,0.267-0.21s0.168-0.083,0.246-0.105,0.152-0.034,0.222-0.036,0.135-0.003,0.195-0.003c0.212,0,0.386,0.033,0.522,0.099s0.243,0.147,0.321,0.243,0.133,0.197,0.165,0.303,0.048,0.199,0.048,0.279c0,0.148-0.035,0.27-0.105,0.366s-0.163,0.176-0.279,0.24c-0.117,0.064-0.248,0.118-0.396,0.162s-0.3,0.089-0.456,0.135-0.308,0.1-0.456,0.162-0.28,0.142-0.396,0.24-0.209,0.219-0.279,0.363-0.105,0.324-0.105,0.54c0,0.16,0.036,0.314,0.108,0.462s0.172,0.279,0.3,0.393,0.281,0.206,0.459,0.276,0.371,0.105,0.579,0.105c0.132,0,0.248-0.012,0.348-0.036s0.188-0.049,0.264-0.075,0.143-0.051,0.201-0.075,0.111-0.036,0.159-0.036c0.056,0,0.093,0.009,0.111,0.027s0.037,0.051,0.057,0.099h0.096v-1.14h-0.078c-0.048,0.14-0.099,0.278-0.153,0.414s-0.123,0.259-0.207,0.369-0.191,0.199-0.318,0.267c-0.128,0.068-0.29,0.102-0.486,0.102-0.16,0-0.301-0.022-0.423-0.066s-0.225-0.102-0.309-0.174-0.148-0.152-0.192-0.24c-0.045-0.088-0.066-0.178-0.066-0.27,0-0.14,0.037-0.256,0.111-0.348s0.171-0.171,0.291-0.237,0.257-0.123,0.411-0.171,0.312-0.098,0.474-0.15,0.32-0.109,0.474-0.171,0.291-0.141,0.411-0.237,0.217-0.212,0.291-0.348,0.111-0.304,0.111-0.504c0-0.196-0.04-0.382-0.12-0.558s-0.193-0.33-0.339-0.462-0.32-0.237-0.522-0.315-0.427-0.117-0.675-0.117c-0.124,0-0.247,0.012-0.369,0.036s-0.237,0.049-0.342,0.075c-0.106,0.026-0.2,0.051-0.282,0.075s-0.143,0.036-0.183,0.036c-0.056,0-0.096-0.009-0.12-0.027s-0.046-0.055-0.066-0.111h-0.096v1.332zm11.482,2.911-1.76,0,0-18.5c0-1.232-1.649-1.212-1.681,0-0.093,3.475-0.026,15.267-0.006,18.5h-0.011v4h-27.999v-22s0-4,4-4h24.999s2.372-0.181,2.458,1.589c0.251,5.161,0,20.411,0,20.411"/></g></g></svg>
