<?xml version="1.0" encoding="UTF-8" standalone="no"?>
<!-- Generator: Adobe Illustrator 16.0.0, SVG Export Plug-In . SVG Version: 6.00 Build 0)  -->
<svg xmlns:rdf="http://www.w3.org/1999/02/22-rdf-syntax-ns#" xmlns="http://www.w3.org/2000/svg" enable-background="new -28.5 -30.5 578 557" xml:space="preserve" height="524" viewBox="-28.5 -30.5 524.49597 524.49597" width="524" version="1.1" y="0px" x="0px" xmlns:cc="http://creativecommons.org/ns#" xmlns:dc="http://purl.org/dc/elements/1.1/"><metadata><rdf:RDF><cc:Work rdf:about=""><dc:format>image/svg+xml</dc:format><dc:type rdf:resource="http://purl.org/dc/dcmitype/StillImage"/><dc:title/></cc:Work></rdf:RDF></metadata><path fill="#563f79" d="M234-25.5c-142,0-258,115-258,258,0,142,115,257,257,257s257-115,257-257-115-258-257-258zm130,205c0.122,2.79,0.185,5.58,0.185,8.39,0,85.7-65.2,184-184,184-36.6,0-70.7-10.7-99.4-29.1,5.08,0.591,10.2,0.897,15.5,0.897,30.4,0,58.3-10.4,80.5-27.8-28.4-0.529-52.3-19.3-60.6-45,3.95,0.767,8.01,1.16,12.2,1.16,5.92,0,11.6-0.786,17.1-2.28-29.7-5.96-52-32.2-52-63.6,0-0.285,0-0.55,0.01-0.826,8.74,4.86,18.7,7.78,29.4,8.12-17.4-11.6-28.8-31.5-28.8-54,0-11.9,3.2-23,8.78-32.6,32,39.2,79.8,65,134,67.7-1.11-4.74-1.68-9.69-1.68-14.8,0-35.8,29-64.8,64.8-64.8,18.6,0,35.5,7.88,47.3,20.5,14.8-2.9,28.6-8.3,41.2-15.7-4.85,15.1-15.1,27.9-28.5,35.9,13.1-1.57,25.6-5.06,37.2-10.2-8.67,13-19.7,24.4-32.3,33.6z"/></svg>
